HIERARCHY
ROOT Hips
{
	OFFSET 0.000000 0.000000 0.000000
	CHANNELS 6 Xposition Yposition Zposition Zrotation Yrotation Xrotation 
	JOINT LHipJoint
	{
		OFFSET 0.000000 0.000000 0.000000
		CHANNELS 3 Zrotation Yrotation Xrotation
		JOINT LeftUpLeg
		{
			OFFSET 1.363060 -1.794630 0.839290
			CHANNELS 3 Zrotation Yrotation Xrotation
			JOINT LeftLeg
			{
				OFFSET 2.448110 -6.726130 0.000000
				CHANNELS 3 Zrotation Yrotation Xrotation
				JOINT LeftFoot
				{
					OFFSET 2.562200 -7.039590 0.000000
					CHANNELS 3 Zrotation Yrotation Xrotation
					JOINT LeftToeBase
					{
						OFFSET 0.157640 -0.433110 2.322550
						CHANNELS 3 Zrotation Yrotation Xrotation
						End Site
						{
							OFFSET 0.000000 0.000000 0.000000
						}
					}
				}
			}
		}
	}
	JOINT RHipJoint
	{
		OFFSET 0.000000 0.000000 0.000000
		CHANNELS 3 Zrotation Yrotation Xrotation
		JOINT RightUpLeg
		{
			OFFSET -1.305520 -1.794630 0.839290
			CHANNELS 3 Zrotation Yrotation Xrotation
			JOINT RightLeg
			{
				OFFSET -2.542530 -6.985550 0.000000
				CHANNELS 3 Zrotation Yrotation Xrotation
				JOINT RightFoot
				{
					OFFSET -2.568260 -7.056230 0.000000
					CHANNELS 3 Zrotation Yrotation Xrotation
					JOINT RightToeBase
					{
						OFFSET -0.164730 -0.452590 2.363150
						CHANNELS 3 Zrotation Yrotation Xrotation
						End Site
						{
							OFFSET 0.000000 0.000000 0.000000
						}
					}
				}
			}
		}
	}
}
MOTION
Frames: 33
Frame Time: 0.008333
1.986035 17.159386 0.477797 144.756019 86.461687 176.539607 -10.318964 0.119297 -0.970081 -10.385406 -0.726367 -43.820536 -0.493492 2.616291 52.044040 2.786858 15.124106 -8.315180 0.154300 -0.000000 -14.725400 8.923049 -0.509644 0.126289 10.214276 4.198631 -31.043021 2.103152 -0.803194 27.073035 -1.635007 -4.399401 -12.887030 0.279000 0.000000 -40.385100
2.236169 17.227751 0.502894 140.882542 86.278297 172.774207 -10.113376 0.031987 -0.739067 -10.761448 -1.338899 -44.603096 -0.676858 2.422703 49.641817 2.762002 14.614390 -8.727725 0.079100 0.000000 -14.755600 9.070680 -0.637286 0.020313 9.963386 3.501173 -29.861343 2.080984 -0.778465 25.808272 -1.416062 -4.027233 -10.732166 0.021600 0.000000 -43.150500
2.487049 17.293920 0.527119 136.666544 86.160910 168.676645 -9.923295 -0.053548 -0.518692 -11.126456 -1.852975 -45.277430 -0.881627 2.211179 46.976219 2.736831 14.099481 -9.088043 0.022700 0.000000 -14.948799 9.200924 -0.771677 -0.075511 9.699299 2.888180 -28.777175 2.046650 -0.774695 24.686140 -1.212789 -3.671392 -8.525186 -0.204200 -0.000000 -45.963500
2.738561 17.357513 0.550573 131.872461 86.101867 164.010370 -9.752770 -0.138729 -0.311489 -11.481183 -2.268241 -45.833531 -1.107817 1.979069 44.043914 2.708933 13.577698 -9.375575 -0.011600 0.000000 -15.294800 9.308846 -0.909287 -0.165391 9.423868 2.366191 -27.772785 2.001595 -0.787739 23.692355 -1.031296 -3.344183 -6.302581 -0.394900 0.000000 -48.827200
2.990840 17.418117 0.573348 126.237695 86.084763 158.501539 -9.608354 -0.222877 -0.112813 -11.827857 -2.587619 -46.258557 -1.353814 1.722531 40.844525 2.675602 13.052351 -9.559270 -0.018000 0.000001 -15.774700 9.389246 -1.049806 -0.248752 9.137221 1.934665 -26.822288 1.946830 -0.812510 22.805031 -0.874984 -3.055202 -4.085210 -0.551600 -0.000001 -51.754900
3.243893 17.475039 0.595416 119.521811 86.098939 151.905791 -9.492201 -0.302321 0.077036 -12.163241 -2.811823 -46.550971 -1.617037 1.441019 37.393033 2.634131 12.530754 -9.606101 0.008800 0.000000 -16.357100 9.441182 -1.185599 -0.331848 8.842829 1.590585 -25.902471 1.882692 -0.843533 22.006388 -0.744487 -2.808877 -1.883617 -0.678400 -0.000000 -54.751200
3.497907 17.527537 0.616767 111.528833 86.127933 144.018599 -9.403158 -0.371107 0.261533 -12.482576 -2.941131 -46.717150 -1.892086 1.134308 33.721118 2.581684 12.021429 -9.484832 0.073200 -0.000000 -17.000900 9.468649 -1.310513 -0.416312 8.546013 1.327497 -24.992030 1.809232 -0.875854 21.280651 -0.638255 -2.604802 0.302969 -0.780700 0.000000 -57.799300
3.753126 17.574779 0.637194 102.243956 86.155443 134.821845 -9.331986 -0.422712 0.441455 -12.777274 -2.974189 -46.779838 -2.171042 0.804512 29.886077 2.515180 11.527839 -9.175880 0.176299 -0.000000 -17.664400 9.484228 -1.416772 -0.503293 8.256809 1.137486 -24.078719 1.726676 -0.905969 20.618471 -0.553375 -2.437836 2.479452 -0.863300 -0.000000 -60.849900
4.009775 17.615912 0.656571 91.924324 86.159857 124.570078 -9.264780 -0.454292 0.614964 -13.042941 -2.909591 -46.772569 -2.444822 0.455702 25.969845 2.430943 11.042382 -8.678065 0.314000 0.000000 -18.309400 9.506128 -1.500160 -0.591217 7.985306 1.007332 -23.159170 1.635949 -0.933252 20.016570 -0.486550 -2.298096 4.651803 -0.928800 0.000000 -63.833800
4.268059 17.650258 0.674656 81.181005 86.120611 113.880025 -9.189340 -0.471384 0.775694 -13.283152 -2.748804 -46.742996 -2.706256 0.095341 22.078263 2.324568 10.541586 -8.013804 0.475600 -0.000000 -18.921100 9.550004 -1.561921 -0.677647 7.740262 0.921472 -22.242998 1.539161 -0.959969 19.477457 -0.435364 -2.173601 6.821390 -0.977400 -0.000000 -66.656000
4.528151 17.677265 0.691304 70.820081 86.022625 103.554558 -9.104342 -0.481016 0.924693 -13.518298 -2.497306 -46.741977 -2.953517 -0.266692 18.328319 2.191009 9.984494 -7.230127 0.643500 0.000000 -19.512000 9.620763 -1.613754 -0.751488 7.521315 0.858370 -21.345716 1.439319 -0.988823 19.009266 -0.397693 -2.047304 8.981216 -1.005200 -0.000001 -69.214100
4.790083 17.696642 0.706432 61.543399 85.868194 94.299910 -9.011328 -0.490651 1.059750 -13.778359 -2.167617 -46.820022 -3.191615 -0.618386 14.829953 2.026636 9.323718 -6.395274 0.794700 -0.000000 -20.117400 9.716349 -1.664272 -0.808163 7.319557 0.795150 -20.488040 1.338881 -1.022204 18.625310 -0.371551 -1.898254 11.117147 -1.004400 0.000000 -71.432400
5.053825 17.708383 0.720045 53.756856 85.670429 86.530221 -8.912848 -0.504702 1.181644 -14.091417 -1.785875 -47.016973 -3.428522 -0.950107 11.666700 1.831279 8.519935 -5.589781 0.905200 -0.000000 -20.778600 9.830027 -1.718363 -0.847473 7.120305 0.709842 -19.691097 1.239776 -1.060975 18.339381 -0.354790 -1.703627 13.208630 -0.964701 0.000000 -73.271199
5.319201 17.712579 0.732196 47.558828 85.447946 80.351046 -8.809627 -0.523535 1.297596 -14.468270 -1.394762 -47.353840 -3.669797 -1.257274 8.883987 1.609543 7.557062 -4.890426 0.957200 0.000000 -21.562199 9.954836 -1.777341 -0.871230 6.909953 0.585217 -18.971743 1.143482 -1.104541 18.164671 -0.345268 -1.443537 15.227572 -0.875000 -0.000000 -74.724700
5.586045 17.709441 0.742838 42.811851 85.219762 75.632510 -8.701037 -0.547432 1.417375 -14.890979 -1.049605 -47.826070 -3.914540 -1.540815 6.483879 1.371149 6.451885 -4.360337 0.944300 -0.000000 -22.516300 10.084450 -1.839141 -0.885377 6.680677 0.411772 -18.336430 1.051312 -1.151476 18.106495 -0.341313 -1.106921 17.146430 -0.727200 -0.000000 -75.835500
5.854104 17.699167 0.751891 39.249239 85.001897 72.111149 -8.587139 -0.577737 1.551567 -15.314070 -0.805989 -48.406076 -4.154925 -1.804932 4.435779 1.128894 5.249215 -4.040287 0.873300 -0.000000 -23.672001 10.212936 -1.901014 -0.896924 6.434115 0.190225 -17.778265 0.964521 -1.200013 18.160801 -0.341936 -0.695329 18.941453 -0.520100 0.000000 -76.680900
6.123160 17.681805 0.759176 36.545204 84.807144 69.460229 -8.470504 -0.617912 1.706613 -15.675114 -0.703656 -49.051811 -4.378366 -2.053810 2.693482 0.895957 4.009410 -3.945150 0.760701 -0.000000 -25.026400 10.333916 -1.960866 -0.913601 6.180956 -0.069353 -17.276108 0.884338 -1.248553 18.313474 -0.346878 -0.223693 20.598074 -0.260100 -0.000000 -77.361601
6.393013 17.657357 0.764493 34.389026 84.644087 67.360233 -8.356058 -0.671817 1.883278 -15.911712 -0.757444 -49.715733 -4.571128 -2.289066 1.212307 0.683549 2.794535 -4.065079 0.627100 0.000000 -26.530600 10.441203 -2.018397 -0.941873 5.937177 -0.351478 -16.795935 0.811632 -1.295974 18.542751 -0.356311 0.284275 22.113902 0.039400 -0.000001 -77.985500
6.663518 17.625676 0.767790 32.514758 84.517889 65.532507 -8.249952 -0.742208 2.076024 -15.975854 -0.958568 -50.356677 -4.721286 -2.508086 -0.037183 0.499945 1.660714 -4.368166 0.492200 -0.000001 -28.089700 10.529478 -2.074466 -0.987121 5.719409 -0.639916 -16.298699 0.746810 -1.341747 18.823074 -0.370638 0.801513 23.498985 0.361800 0.000000 -78.647900
6.934667 17.586486 0.769163 30.740540 84.430353 63.778896 -8.157999 -0.827964 2.276912 -15.842531 -1.283335 -50.943816 -4.820733 -2.704114 -1.063736 0.350719 0.658210 -4.803287 0.371600 -0.000000 -29.581700 10.596006 -2.131193 -1.051544 5.539523 -0.922696 -15.746436 0.689439 -1.385786 19.130193 -0.390292 1.304321 24.774127 0.691400 -0.000000 -79.414600
7.206382 17.539433 0.768808 28.959351 84.382401 61.981107 -8.084098 -0.925151 2.476197 -15.507423 -1.706749 -51.464957 -4.865290 -2.866710 -1.852634 0.239873 -0.164401 -5.306517 0.275300 0.000000 -30.894800 10.640713 -2.189643 -1.137450 5.404764 -1.194741 -15.112549 0.638788 -1.428607 19.446316 -0.415535 1.777332 25.965971 1.016900 0.000000 -80.307100
7.478725 17.484069 0.767182 27.160363 84.374245 60.121465 -8.029466 -1.025541 2.668803 -14.983207 -2.215705 -51.920804 -4.854329 -2.984583 -2.374888 0.171185 -0.753528 -5.805354 0.208100 0.000001 -31.960200 10.667530 -2.250501 -1.244280 5.313260 -1.460627 -14.385865 0.593601 -1.470965 19.763821 -0.446457 2.216638 27.103303 1.334201 -0.000000 -81.296300
7.751760 17.419956 0.764823 25.423907 84.407382 58.281065 -7.992074 -1.119120 2.854763 -14.290593 -2.815645 -52.326362 -4.789375 -3.047537 -2.593329 0.149148 -1.049839 -6.227194 0.171100 -0.000000 -32.766900 10.683922 -2.313166 -1.370573 5.255640 -1.734521 -13.574499 0.552673 -1.513917 20.087552 -0.482897 2.630127 28.210182 1.646800 -0.000000 -82.305399
8.025472 17.346769 0.762376 23.919388 84.485873 56.635778 -7.967086 -1.195223 3.039394 -13.456371 -3.528297 -52.706773 -4.673331 -3.048046 -2.467206 0.178847 -0.995772 -6.507573 0.163800 0.000000 -33.350500 10.700403 -2.376564 -1.513263 5.213619 -2.039850 -12.703869 0.515030 -1.558611 20.434273 -0.524506 3.036345 29.303074 1.965601 -0.000000 -83.222200
8.299785 17.264327 0.760452 22.894611 84.617351 55.446105 -7.946407 -1.244732 3.228030 -12.519935 -4.378986 -53.103028 -4.511704 -2.980774 -1.945835 0.263647 -0.557544 -6.599523 0.188000 0.000000 -33.774800 10.729872 -2.439029 -1.669648 5.163539 -2.407534 -11.814459 0.480366 -1.606447 20.833409 -0.570808 3.460603 30.385300 2.306200 -0.000000 -83.919800
8.574357 17.172814 0.759623 22.660707 84.809725 55.032634 -7.919969 -1.259871 3.421109 -11.549126 -5.373325 -53.568693 -4.315079 -2.841053 -0.961850 0.400813 0.245697 -6.477137 0.249500 0.000000 -34.116500 10.786417 -2.499459 -1.835876 5.076392 -2.872314 -10.951533 0.448851 -1.658649 21.321305 -0.621168 3.929052 31.445671 2.685099 0.000000 -84.277600
8.848739 17.072717 0.760356 23.543841 85.065681 55.724854 -7.876373 -1.234315 3.608224 -10.652286 -6.473645 -54.169683 -4.101195 -2.622566 0.576399 0.576711 1.317361 -6.140162 0.355700 -0.000000 -34.451300 10.884764 -2.557272 -2.007115 4.923057 -3.466946 -10.156550 0.420673 -1.716066 21.938191 -0.674855 4.460101 32.458128 3.113800 -0.000000 -84.200000
9.122326 16.964855 0.762966 25.780485 85.374757 57.751036 -7.806900 -1.162449 3.765778 -9.975093 -7.581469 -54.973661 -3.893017 -2.314479 2.784797 0.763764 2.476352 -5.618667 0.506200 -0.000000 -34.828000 11.036828 -2.612533 -2.176111 4.682374 -4.210396 -9.455887 0.394911 -1.778480 22.720499 -0.731025 5.051069 33.385391 3.588800 0.000000 -83.628600
9.394266 16.850338 0.767373 29.363941 85.709588 61.086608 -7.711082 -1.043116 3.861207 -9.650013 -8.560594 -56.024307 -3.705081 -1.903048 5.768143 0.928961 3.516231 -4.971773 0.684500 -0.000000 -35.219200 11.245373 -2.664040 -2.337258 4.350464 -5.098612 -8.855164 0.368780 -1.844980 23.699091 -0.788638 5.668133 34.183123 4.083400 -0.000000 -82.549400
9.663605 16.730420 0.773181 33.962137 86.031150 65.377257 -7.601198 -0.884982 3.864979 -9.734319 -9.286970 -57.314321 -3.530305 -1.379973 9.567409 1.048452 4.288893 -4.281866 0.859300 -0.000000 -35.469200 11.497950 -2.710219 -2.487549 3.940953 -6.101502 -8.341058 0.337779 -1.914639 24.895932 -0.846774 6.243851 34.805699 4.546000 -0.000000 -80.995700
9.929293 16.606735 0.779725 39.009115 86.303984 70.037291 -7.497759 -0.712420 3.761189 -10.173593 -9.700271 -58.766811 -3.339193 -0.757819 14.101959 1.119940 4.769978 -3.639713 0.999000 0.000000 -35.317200 11.769395 -2.749634 -2.628918 3.472119 -7.173490 -7.890699 0.297588 -1.988280 26.324275 -0.905348 6.689687 35.210878 4.909100 0.000000 -79.044800
10.190243 16.481414 0.786505 43.914634 86.506235 74.466265 -7.416680 -0.560057 3.550346 -10.840574 -9.811344 -60.252182 -3.101156 -0.078026 19.164828 1.159438 5.037004 -3.133430 1.084900 -0.000000 -34.536301 12.034553 -2.779991 -2.768562 2.952557 -8.268301 -7.485476 0.245748 -2.069418 27.991750 -0.965547 6.916470 35.362299 5.105800 -0.000000 -76.818600
10.445549 16.357051 0.793379 48.217578 86.626043 78.204398 -7.361973 -0.456025 3.246938 -11.611503 -9.667649 -61.627779 -2.809329 0.600284 24.473169 1.187109 5.192117 -2.843893 1.112600 0.000000 -33.098000 12.278642 -2.797347 -2.914489 2.376505 -9.344726 -7.119681 0.181273 -2.162865 29.899467 -1.029756 6.849113 35.233294 5.083000 -0.000001 -74.435099
